# xmcd
# 
# Track frame offsets:
#     150
#     27675
#     46550
#     60537
#     80247
#     108700
#     131750
#     154142
#     178800
#     194050
#     208137
#     236175
#     258607
#     281950
#     300712
# 
# Disc length: 4275
# 
# Revision: 1
# Processed by: cddbd v1.5.2PL0 Copyright (c) Steve Scherf et al.
# Submitted via: BonkEnc v1.0.8
# 
DISCID=f110b10f
DTITLE=CHAR - ALL AROUND ME 〜CHAR PLAYS BALLAD
DYEAR=1999
DGENRE=R&B
TTITLE0=VOICES
TTITLE1=ALL AROUND ME
TTITLE2=I'M HERE FOR YOU
TTITLE3=KINDA BLUE
TTITLE4=OH BABY
TTITLE5=SO MUCH IN LOVE
TTITLE6=WITHOUT LOVE
TTITLE7=DAZED(DAZED BY LOVE)
TTITLE8=FUTURE CHILD
TTITLE9=DAYS WENT BY
TTITLE10=LOVERS WALK
TTITLE11=ROOM NO.7
TTITLE12=左胸の砂丘
TTITLE13=2918
TTITLE14=ENDLESS DREAM
EXTD=YEAR: 1999
EXTT0=
EXTT1=
EXTT2=
EXTT3=
EXTT4=
EXTT5=
EXTT6=
EXTT7=
EXTT8=
EXTT9=
EXTT10=
EXTT11=
EXTT12=
EXTT13=
EXTT14=
PLAYORDER=
